:SAMPLES-PER-SECOND 30
:FRAME-RANGE 1-1390
:FULLY-SPECIFIED
:DEGREES
131
root  -20.718 36.1284 -44.128 -22.7321 85.5334 -16.6039
RightUpLeg  -12.7509 -4.50093 9.04782
RightLeg  46.3997 -9.28379 -10.6079
RightFoot  -27.8896 -0.0721435 0.805544
RightToes  -2.9104e-010 0 -3.6325e-017
Spine  19.5374 -2.01183 -3.62768
Spine1  4.8852 -7.30993 7.35777
HEad  -15.8889 6.58264 -3.41627
LeftShoulder1  3.75698 -6.45225 -31.7391
LeftArm  67.2189 -38.9088 -87.083
LeftForeArm  11.0423 -12.2856 -15.3801
LeftHand  -0.0390428 4.21571 1.74616
RightShoulder  15.2014 24.7509 46.8926
RightArm  27.2342 16.968 23.9085
RightForeArm  27.0294 12.879 11.7662
RightHand  0.489308 0.997678 8.80742
LeftUpLeg  -89.2204 23.4093 -66.2534
LeftLeg  121.521 -3.91673 5.38375
LeftFoot  5.25419 0.827137 -5.88799
LeftToes  5.45371e-012 -1.3743e-010 1.09575e-010
132
root  -19.9504 36.9945 -43.7038 -16.5139 86.8089 -10.7078
RightUpLeg  -8.66133 -5.90451 8.32071
RightLeg  39.8946 -9.97797 -9.10321
RightFoot  -25.6483 -0.103135 0.563633
RightToes  -2.9104e-010 0 -3.6325e-017
Spine  18.6438 -1.80171 -4.77962
Spine1  4.22245 -7.10383 6.88559
HEad  -14.7463 5.25322 -2.59228
LeftShoulder1  3.73062 -6.47027 -31.4048
LeftArm  72.0949 -37.7331 -86.711
LeftForeArm  6.74459 -13.833 -14.4863
LeftHand  -0.0372901 4.38157 1.73018
RightShoulder  15.1452 24.4776 47.1912
RightArm  30.6069 16.0973 23.8756
RightForeArm  24.5282 13.8302 11.3449
RightHand  0.479802 1.13276 8.4415
LeftUpLeg  -89.8966 22.8987 -67.8104
LeftLeg  122.221 -2.72439 3.49747
LeftFoot  5.06335 1.22839 -8.72434
LeftToes  5.45371e-012 -1.3743e-010 1.09575e-010
133
root  -19.1698 38.0543 -43.3013 3.474 87.2138 8.81077
RightUpLeg  -4.88078 -6.33235 7.10798
RightLeg  33.3095 -9.50323 -6.91133
RightFoot  -21.0434 0.00349123 1.72016
RightToes  -2.9104e-010 0 -3.6325e-017
Spine  18.1172 -1.20688 -5.80908
Spine1  2.46926 -6.38379 6.02865
HEad  -12.2458 3.93247 -1.51322
LeftShoulder1  3.68124 -6.40012 -31.1691
LeftArm  72.0378 -36.6704 -86.1099
LeftForeArm  5.58725 -13.9989 -14.4142
LeftHand  -0.0308567 3.8395 0.796029
RightShoulder  14.6383 23.3473 47.5685
RightArm  33.0853 14.7718 24.4088
RightForeArm  22.433 15.0024 10.5489
RightHand  0.514876 1.45473 8.60416
LeftUpLeg  -91.4809 22.2943 -69.5617
LeftLeg  123.072 -3.84616 4.96992
LeftFoot  5.76264 1.34976 -9.19532
LeftToes  5.45371e-012 -1.3743e-010 1.09575e-010
134
root  -18.4339 39.0955 -43.0063 24.4188 87.2652 29.6797
RightUpLeg  -2.61515 -8.23016 5.32536
RightLeg  29.8833 -7.29194 -4.74834
RightFoot  -14.5085 0.0125457 4.01027
RightToes  -2.9104e-010 0 -3.6325e-017
Spine  17.9268 -0.892527 -6.47409
Spine1  1.32742 -5.95 5.23963
HEad  -9.66956 3.28332 -1.19318
LeftShoulder1  3.62942 -6.41416 -30.588
LeftArm  71.0551 -36.2658 -85.994
LeftForeArm  5.26422 -13.7861 -14.5924
LeftHand  -0.0209413 3.62132 0.0851879
RightShoulder  14.3919 22.7853 47.785
RightArm  34.6815 13.9861 24.9236
RightForeArm  20.6726 15.5701 10.1755
RightHand  0.533151 1.55601 8.77276
LeftUpLeg  -92.5766 21.6016 -70.6212
LeftLeg  123.577 -4.98434 6.4469
LeftFoot  6.59914 1.36185 -8.86997
LeftToes  5.45371e-012 -1.3743e-010 1.09575e-010
135
root  -17.775 39.969 -42.8245 37.0043 87.2466 42.3528
RightUpLeg  -2.264 -9.8132 3.76921
RightLeg  29.8911 -4.9658 -3.31946
RightFoot  -7.01375 -0.350152 7.98965
RightToes  -2.9104e-010 0 -3.6325e-017
Spine  18.1497 -0.785024 -6.72907
Spine1  0.660337 -5.81499 5.06877
HEad  -7.3535 3.21038 -1.6793
LeftShoulder1  3.60492 -6.48967 -30.0594
LeftArm  70.735 -36.1598 -86.1649
LeftForeArm  4.9945 -13.6862 -14.6806
LeftHand  -0.0171943 3.61616 -0.172318
RightShoulder  14.3899 22.8816 47.5976
RightArm  34.0028 14.0171 25.3299
RightForeArm  21.755 14.9178 10.6616
RightHand  0.565106 1.92312 8.80244
LeftUpLeg  -93.1505 20.9346 -71.0722
LeftLeg  123.498 -5.54793 7.24231
LeftFoot  6.39397 1.4022 -9.22324
LeftToes  5.45371e-012 -1.3743e-010 1.09575e-010
136
root  -17.1805 40.5463 -42.68 38.8202 86.9315 43.8976
RightUpLeg  -5.06531 -9.05724 3.15155
RightLeg  34.239 -4.24713 -3.35927
RightFoot  0.236779 -0.735913 7.26468
RightToes  -2.9104e-010 0 -3.6325e-017
Spine  18.3428 -0.563363 -6.44585
Spine1  0.0956068 -5.46341 4.8707
HEad  -5.40328 3.44624 -2.12324
LeftShoulder1  3.58766 -6.54202 -29.6937
LeftArm  69.6849 -36.3479 -86.6097
LeftForeArm  5.74585 -13.3085 -14.9223
LeftHand  -0.0131163 3.66506 -0.487285
RightShoulder  14.4054 23.0523 47.3324
RightArm  32.7204 14.1376 25.4782
RightForeArm  23.2588 14.4182 10.938
RightHand  0.57444 2.12078 8.69615
LeftUpLeg  -94.0941 20.6042 -71.6944
LeftLeg  123.083 -5.886 7.8275
LeftFoot  5.70228 1.53266 -10.4392
LeftToes  5.45371e-012 -1.3743e-010 1.09575e-010
137
root  -16.6088 40.691 -42.5281 46.5436 87.0162 51.2192
RightUpLeg  -7.60851 -7.42516 3.24181
RightLeg  36.5044 -7.25111 -5.98911
RightFoot  -0.589942 -0.463235 4.87611
RightToes  -2.9104e-010 0 -3.6325e-017
Spine  18.3143 -0.677163 -6.16765
Spine1  0.267941 -5.47556 4.61197
HEad  -5.17867 3.75311 -2.33191
LeftShoulder1  3.55685 -6.45622 -29.6917
LeftArm  68.7454 -36.7839 -86.8046
LeftForeArm  5.59341 -12.9857 -15.1588
LeftHand  -0.00826923 3.53344 -0.862839
RightShoulder  14.526 23.3761 47.1415
RightArm  31.5044 14.6219 25.245
RightForeArm  24.4266 13.9056 11.2588
RightHand  0.593076 2.29772 8.76019
LeftUpLeg  -94.4136 20.5068 -72.6825
LeftLeg  122.432 -6.19505 8.46144
LeftFoot  5.54699 1.59034 -10.9154
LeftToes  5.45371e-012 -1.3743e-010 1.09575e-010
138
root  -16.0286 40.6205 -42.3602 64.848 88.086 69.1844
RightUpLeg  -8.12787 -6.15799 3.80481
RightLeg  31.4634 -8.93626 -6.09717
RightFoot  -7.16773 -0.24449 5.36686
RightToes  -2.9104e-010 0 -3.6325e-017
Spine  18.6673 -1.12346 -5.38587
Spine1  0.612177 -5.96514 4.94471
HEad  -6.31948 3.89873 -2.64784
LeftShoulder1  3.60321 -6.42395 -30.284
LeftArm  66.4244 -37.1633 -86.5748
LeftForeArm  7.39312 -12.3095 -15.5306
LeftHand  -0.00241582 3.2632 -1.00186
RightShoulder  14.4244 23.4564 46.6561
RightArm  29.6351 15.3494 25.2292
RightForeArm  26.1391 12.9983 11.7987
RightHand  0.587836 2.38887 8.57168
LeftUpLeg  -93.4798 21.2993 -72.3439
LeftLeg  121.7 -5.94283 8.33211
LeftFoot  5.78259 1.67522 -11.3327
LeftToes  5.45371e-012 -1.3743e-010 1.09575e-010
139
root  -15.4554 40.1089 -42.1838 92.6316 88.7804 96.3577
RightUpLeg  -8.32011 -3.67708 4.40119
RightLeg  23.7218 -11.1887 -5.55368
RightFoot  -13.78 0.0674406 7.55709
RightToes  -2.9104e-010 0 -3.6325e-017
Spine  18.9703 -1.42877 -4.32659
Spine1  0.822616 -6.17565 4.90703
HEad  -7.57384 3.70853 -2.73702
LeftShoulder1  3.6613 -6.55923 -30.3751
LeftArm  66.2752 -37.3973 -86.7132
LeftForeArm  8.21438 -12.2493 -15.5316
LeftHand  -0.00304802 3.4341 -0.695349
RightShoulder  14.3576 23.5359 46.2895
RightArm  28.7919 15.5475 25.276
RightForeArm  26.9151 12.7092 11.9394
RightHand  0.603433 2.51492 8.65196
LeftUpLeg  -93.0963 22.0483 -71.9398
LeftLeg  121.53 -5.46516 7.68256
LeftFoot  5.66942 1.72128 -11.7096
LeftToes  5.45371e-012 -1.3743e-010 1.09575e-010
140
root  -14.8358 39.1801 -41.9283 115.4 88.9688 118.699
RightUpLeg  -10.0264 -2.78199 5.00594
RightLeg  21.7683 -10.7418 -4.88236
RightFoot  -10.729 -0.0789591 1.16952
RightToes  -2.9104e-010 0 -3.6325e-017
Spine  19.008 -1.37997 -3.84549
Spine1  1.13262 -6.18282 4.94804
HEad  -8.74174 3.4168 -2.61978
LeftShoulder1  3.67755 -6.62012 -30.3162
LeftArm  65.9756 -37.4944 -86.4993
LeftForeArm  8.30606 -12.1991 -15.5599
LeftHand  -0.00350204 3.38259 -0.903717
RightShoulder  14.4853 23.839 46.1723
RightArm  29.5192 15.1977 25.3948
RightForeArm  26.1863 12.7609 11.9786
RightHand  0.582194 2.36554 8.51548
LeftUpLeg  -93.0791 22.7563 -70.9219
LeftLeg  122.064 -4.88893 6.69098
LeftFoot  6.11607 1.86915 -12.3793
LeftToes  5.45371e-012 -1.3743e-010 1.09575e-010
141
root  -14.1631 37.9385 -41.6205 -168.191 88.7448 -164.431
RightUpLeg  -13.9886 -4.88912 7.28241
RightLeg  33.0609 -10.115 -7.2736
RightFoot  -17.0696 -0.175212 -1.19473
RightToes  -2.9104e-010 0 -3.6325e-017
Spine  19.7397 -1.40039 -2.62365
Spine1  1.45331 -6.17622 5.34046
HEad  -10.727 2.99521 -2.61653
LeftShoulder1  3.68781 -6.48875 -30.903
LeftArm  66.2749 -37.4327 -85.8391
LeftForeArm  8.40695 -12.376 -15.4401
LeftHand  -0.0105111 3.37119 -0.472255
RightShoulder  14.686 23.8377 46.8366
RightArm  30.7383 14.8523 25.0596
RightForeArm  24.597 13.0635 11.8993
RightHand  0.528026 2.00853 8.11338
LeftUpLeg  -92.4445 23.3623 -67.9038
LeftLeg  123.32 -4.36139 5.64361
LeftFoot  6.94299 1.71679 -10.9064
LeftToes  5.45371e-012 -1.3743e-010 1.09575e-010
142
root  -13.4816 36.8872 -41.3536 -142.617 87.2241 -138.165
RightUpLeg  -16.0333 -7.12717 9.29799
RightLeg  40.9747 -8.67402 -8.28026
RightFoot  -21.9307 -0.289813 -1.52571
RightToes  -2.9104e-010 0 -3.6325e-017
Spine  19.0972 -1.83304 -1.97911
Spine1  4.25574 -6.67236 5.83879
HEad  -14.5762 3.66263 -2.65814
LeftShoulder1  3.6705 -6.14274 -32.0533
LeftArm  71.4256 -37.4552 -84.5767
LeftForeArm  4.89201 -13.904 -14.5206
LeftHand  -0.0389933 3.12325 1.1723
RightShoulder  15.5776 24.1947 49.0782
RightArm  25.9261 16.2158 23.0527
RightForeArm  27.3914 11.3716 12.8314
RightHand  0.429171 1.75302 6.82625
LeftUpLeg  -91.2955 23.9648 -65.2552
LeftLeg  123.239 -6.77208 9.00487
LeftFoot  7.13759 0.771126 -5.00651
LeftToes  5.45371e-012 -1.3743e-010 1.09575e-010
143
root  -12.6732 36.3738 -41.0521 -152.735 85.7181 -147.621
RightUpLeg  -15.5586 -8.21583 10.2474
RightLeg  44.4238 -9.19347 -9.83315
RightFoot  -25.1683 -0.372521 -1.66587
RightToes  -2.9104e-010 0 -3.6325e-017
Spine  18.7623 -1.84546 -3.30713
Spine1  5.38888 -7.26076 7.46962
HEad  -14.5299 3.60242 -1.77044
LeftShoulder1  3.71787 -6.24793 -32.1293
LeftArm  76.7996 -36.8801 -84.4494
LeftForeArm  0.444829 -15.4248 -13.4915
LeftHand  -0.0493271 3.34058 1.84676
RightShoulder  15.333 23.4748 49.6174
RightArm  20.1599 16.9226 22.257
RightForeArm  29.5946 10.8898 12.6653
RightHand  0.567934 2.95162 7.67167
LeftUpLeg  -90.6398 25.009 -65.8704
LeftLeg  122.054 -10.0088 13.9619
LeftFoot  6.83756 -0.190647 0.931611
LeftToes  5.45371e-012 -1.3743e-010 1.09575e-010
144
root  -11.8914 36.3852 -40.8258 -155.366 84.6017 -150.1
RightUpLeg  -13.722 -7.98137 11.0795
RightLeg  43.91 -10.2873 -10.7351
RightFoot  -26.1555 -0.301566 -0.955862
RightToes  -2.9104e-010 0 -3.6325e-017
Spine  18.545 -2.06021 -3.25084
Spine1  4.41025 -7.18956 6.97942
HEad  -12.2589 2.81961 -0.494125
LeftShoulder1  3.72305 -6.14126 -32.6044
LeftArm  69.1838 -38.0039 -84.5021
LeftForeArm  7.10389 -13.2527 -14.8983
LeftHand  -0.0310844 3.36161 0.76664
RightShoulder  14.954 23.0715 49.1307
RightArm  26.5512 16.1986 22.9689
RightForeArm  25.7849 13.2392 11.5899
RightHand  0.548381 2.65547 7.69821
LeftUpLeg  -90.7741 24.7807 -66.8237
LeftLeg  122.836 -6.82581 9.21559
LeftFoot  5.26883 0.454741 -3.33471
LeftToes  5.45371e-012 -1.3743e-010 1.09575e-010
145
root  -11.0639 36.983 -40.5934 -164.614 84.1574 -159.427
RightUpLeg  -10.1136 -8.85564 10.3538
RightLeg  39.2778 -10.7097 -9.52912
RightFoot  -25.0853 -0.263079 -0.772587
RightToes  -2.9104e-010 0 -3.6325e-017
Spine  17.6718 -1.97026 -4.57068
Spine1  4.25786 -7.19301 6.828
HEad  -10.7251 1.71578 0.180114
LeftShoulder1  3.73147 -6.29406 -32.0887
LeftArm  68.5549 -37.6338 -84.528
LeftForeArm  7.77348 -13.1238 -14.959
LeftHand  -0.0297589 3.56341 0.694626
RightShoulder  14.9307 23.5059 48.2441
RightArm  30.148 15.0549 23.7927
RightForeArm  25.3201 14.3538 10.8444
RightHand  0.511842 2.28252 7.55498
LeftUpLeg  -91.177 24.5819 -68.3957
LeftLeg  123.607 -3.49893 4.38766
LeftFoot  4.99005 1.10409 -7.89809
LeftToes  5.45371e-012 -1.3743e-010 1.09575e-010
